<svg width="224" height="35" viewBox="0 0 224 35" fill="none" xmlns="http://www.w3.org/2000/svg">
<path d="M3.21137 0H0V34.9456H3.21137V0Z" fill="#222222" fill-opacity="0.81"/>
<path d="M19.0765 0H9.03979V34.9456H19.0765V0Z" fill="#222222" fill-opacity="0.81"/>
<path d="M29.9088 0H23.8887V34.9456H29.9088V0Z" fill="#222222" fill-opacity="0.81"/>
<path d="M50.9887 0H37.338V34.9456H50.9887V0Z" fill="#222222" fill-opacity="0.81"/>
<path d="M55.9928 0H54.1906V34.9456H55.9928V0Z" fill="#222222" fill-opacity="0.81"/>
<path d="M79.6899 0H60.4217V34.9456H79.6899V0Z" fill="#222222" fill-opacity="0.81"/>
<path d="M92.5257 0H83.8982V34.9456H92.5257V0Z" fill="#222222" fill-opacity="0.81"/>
<path d="M98.1431 0H96.1396V34.9456H98.1431V0Z" fill="#222222" fill-opacity="0.81"/>
<path d="M109.992 0H101.163V34.9456H109.992V0Z" fill="#222222" fill-opacity="0.81"/>
<path d="M117.22 0H114.008V34.9456H117.22V0Z" fill="#222222" fill-opacity="0.81"/>
<path d="M133.075 0H123.039V34.9456H133.075V0Z" fill="#222222" fill-opacity="0.81"/>
<path d="M143.917 0H137.897V34.9456H143.917V0Z" fill="#222222" fill-opacity="0.81"/>
<path d="M164.988 0H151.337V34.9456H164.988V0Z" fill="#222222" fill-opacity="0.81"/>
<path d="M170.001 0H168.199V34.9456H170.001V0Z" fill="#222222" fill-opacity="0.81"/>
<path d="M193.689 0H174.42V34.9456H193.689V0Z" fill="#222222" fill-opacity="0.81"/>
<path d="M206.534 0H197.906V34.9456H206.534V0Z" fill="#222222" fill-opacity="0.81"/>
<path d="M212.152 0H210.148V34.9456H212.152V0Z" fill="#222222" fill-opacity="0.81"/>
<path d="M224 0H215.171V34.9456H224V0Z" fill="#222222" fill-opacity="0.81"/>
</svg>
