<svg width="44" height="44" viewBox="0 0 44 44" fill="none" xmlns="http://www.w3.org/2000/svg">
<path fill-rule="evenodd" clip-rule="evenodd" d="M14 19.415C14.0466 14.7538 17.8386 10.9998 22.5 11C27.1614 10.9998 30.9534 14.7538 31 19.415C31 25.2375 23.5625 31.7188 23.1906 31.995C22.793 32.3351 22.207 32.3351 21.8094 31.995L21.8076 31.9935C21.4644 31.696 14 25.2273 14 19.415ZM18.7812 18.9688C18.7812 21.0226 20.4462 22.6875 22.5 22.6875C23.4863 22.6875 24.4322 22.2957 25.1296 21.5983C25.827 20.9009 26.2188 19.955 26.2188 18.9688C26.2188 16.9149 24.5538 15.25 22.5 15.25C20.4462 15.25 18.7812 16.9149 18.7812 18.9688Z" fill="white"/>
</svg>
