<svg width="28" height="28" viewBox="0 0 28 28" fill="none" xmlns="http://www.w3.org/2000/svg">
<g clip-path="url(#clip0_1_3847)">
<path d="M19.2488 0C17.756 0.103249 16.0113 1.05874 14.9946 2.30299C14.0671 3.43173 13.3041 5.10822 13.6016 6.73746C15.2326 6.78821 16.9178 5.80997 17.8943 4.54472C18.8078 3.36698 19.499 1.70099 19.2488 0Z" fill="#161C22"/>
<path d="M25.148 9.39395C23.7147 7.59671 21.7005 6.55371 19.7982 6.55371C17.287 6.55371 16.2248 7.75595 14.48 7.75595C12.681 7.75595 11.3143 6.55721 9.14255 6.55721C7.00931 6.55721 4.73783 7.86095 3.29758 10.0904C1.27285 13.2299 1.61934 19.1326 4.90057 24.1604C6.07482 25.9594 7.64281 27.9823 9.6938 27.9998C11.519 28.0173 12.0335 26.8291 14.5063 26.8169C16.979 26.8029 17.448 28.0156 19.2697 27.9963C21.3225 27.9806 22.9762 25.7389 24.1505 23.9399C24.9922 22.6501 25.3055 22.0009 25.9582 20.5449C21.2105 18.7371 20.4492 11.9857 25.148 9.39395Z" fill="#161C22"/>
</g>
<defs>
<clipPath id="clip0_1_3847">
<rect width="28" height="28" fill="white"/>
</clipPath>
</defs>
</svg>
