<svg width="44" height="44" viewBox="0 0 44 44" fill="none" xmlns="http://www.w3.org/2000/svg">
<g filter="url(#filter0_d_0_147)">
<path d="M30.83 18.01L24.28 12.77C23 11.75 21 11.74 19.73 12.76L13.18 18.01C12.24 18.76 11.67 20.26 11.87 21.44L13.13 28.98C13.42 30.67 14.99 32 16.7 32H27.3C28.99 32 30.59 30.64 30.88 28.97L32.14 21.43C32.32 20.26 31.75 18.76 30.83 18.01ZM22.75 28C22.75 28.41 22.41 28.75 22 28.75C21.59 28.75 21.25 28.41 21.25 28V25C21.25 24.59 21.59 24.25 22 24.25C22.41 24.25 22.75 24.59 22.75 25V28Z" fill="#FBA442"/>
</g>
<defs>
<filter id="filter0_d_0_147" x="-4.16992" y="1" width="52.343" height="52" filterUnits="userSpaceOnUse" color-interpolation-filters="sRGB">
<feFlood flood-opacity="0" result="BackgroundImageFix"/>
<feColorMatrix in="SourceAlpha" type="matrix" values="0 0 0 0 0 0 0 0 0 0 0 0 0 0 0 0 0 0 127 0" result="hardAlpha"/>
<feOffset dy="5"/>
<feGaussianBlur stdDeviation="8"/>
<feComposite in2="hardAlpha" operator="out"/>
<feColorMatrix type="matrix" values="0 0 0 0 0.988235 0 0 0 0 0.741176 0 0 0 0 0.407843 0 0 0 0.25 0"/>
<feBlend mode="normal" in2="BackgroundImageFix" result="effect1_dropShadow_0_147"/>
<feBlend mode="normal" in="SourceGraphic" in2="effect1_dropShadow_0_147" result="shape"/>
</filter>
</defs>
</svg>
