<svg width="24" height="24" viewBox="0 0 24 24" fill="none" xmlns="http://www.w3.org/2000/svg">
<g clip-path="url(#clip0_0_227)">
<path d="M15.0748 8.30548H14.8177L14.9072 7.35129C14.912 7.29023 14.929 7.23087 14.957 7.17691C14.985 7.12296 15.0234 7.07557 15.0699 7.03772C15.1063 7.00799 15.1381 6.97276 15.1643 6.9332C15.1906 6.89357 15.2104 6.84971 15.2229 6.80339L15.2945 6.54546H8.62252L8.69412 6.80339C8.7201 6.8962 8.77362 6.97818 8.84709 7.03772C8.89525 7.07458 8.93521 7.12172 8.96426 7.17596C8.99148 7.22836 9.00914 7.28551 9.01634 7.34454L9.10584 8.29873H8.92195C8.74293 8.29869 8.56587 8.33728 8.40205 8.41205C8.23822 8.48681 8.09123 8.59612 7.97044 8.73299C7.84964 8.86987 7.7577 9.03131 7.70047 9.20703C7.64323 9.38276 7.62195 9.56891 7.638 9.75362V9.78227C7.68497 10.3303 7.87991 10.8535 8.20051 11.292C8.5211 11.7306 8.95441 12.0668 9.45083 12.2622C9.58996 12.3175 9.70849 12.4173 9.78931 12.5471C9.97829 12.8524 10.2254 13.1145 10.5156 13.3174C10.8058 13.5203 11.1328 13.6597 11.4768 13.7272V14.8364C11.4768 14.9445 11.4505 15.0509 11.4005 15.1457C11.3504 15.2405 11.2782 15.3209 11.1904 15.3793L10.5639 15.7974C10.5375 15.8152 10.5166 15.8407 10.5039 15.8706C10.4912 15.9006 10.4872 15.9337 10.4923 15.966H13.4215C13.4268 15.9339 13.423 15.9008 13.4106 15.8709C13.3981 15.841 13.3776 15.8155 13.3515 15.7974L12.7234 15.3793C12.6358 15.3206 12.5637 15.2403 12.5137 15.1455C12.4637 15.0507 12.4373 14.9445 12.4369 14.8364V13.7255C12.7753 13.6603 13.0976 13.5255 13.3847 13.3288C13.6718 13.1322 13.9178 12.8778 14.1082 12.5808C14.1958 12.4473 14.3233 12.3472 14.4711 12.2959C14.9833 12.1085 15.4327 11.7726 15.766 11.3282C16.0992 10.8838 16.3021 10.3495 16.3506 9.78902V9.76036C16.3666 9.57636 16.3456 9.39092 16.2888 9.21577C16.2321 9.04062 16.1409 8.87958 16.021 8.74284C15.901 8.60609 15.755 8.49662 15.5922 8.42133C15.4293 8.34605 15.2531 8.3066 15.0748 8.30548ZM8.3345 9.74687V9.68955C8.32822 9.60346 8.33918 9.51694 8.36668 9.43544C8.39417 9.35393 8.43762 9.27918 8.4943 9.21588C8.55097 9.15257 8.61965 9.10208 8.69604 9.06755C8.77243 9.03302 8.85488 9.0152 8.93822 9.01522H9.18232L9.38899 11.3333C9.38899 11.3821 9.39875 11.431 9.40526 11.4782C9.10305 11.3032 8.84722 11.0536 8.66043 10.7516C8.47365 10.4496 8.36169 10.1045 8.3345 9.74687ZM13.415 9.74687L12.6924 10.374L12.9154 11.3383C12.9202 11.3576 12.9191 11.378 12.9125 11.3966C12.9058 11.4153 12.8937 11.4314 12.8779 11.4428C12.8619 11.4535 12.8433 11.4592 12.8242 11.4592C12.8052 11.4592 12.7866 11.4535 12.7705 11.4428L11.9569 10.9185L11.1432 11.4428C11.1281 11.4526 11.1106 11.4579 11.0928 11.458C11.0725 11.4575 11.0527 11.4511 11.0358 11.4395C11.0207 11.4275 11.0092 11.4113 11.0025 11.3928C10.9959 11.3743 10.9945 11.3542 10.9984 11.3349L11.223 10.3706L10.5004 9.7435C10.4857 9.73098 10.4749 9.71419 10.4694 9.69527C10.4639 9.67636 10.4639 9.65618 10.4695 9.63729C10.4758 9.61845 10.4871 9.60182 10.502 9.5893C10.517 9.57678 10.535 9.56887 10.5541 9.56648L11.5012 9.48388L11.8625 8.58364C11.8692 8.56515 11.8812 8.54924 11.8969 8.53808C11.9127 8.52692 11.9313 8.52105 11.9504 8.52126C11.9697 8.52094 11.9886 8.52675 12.0046 8.5379C12.0206 8.54905 12.0329 8.56502 12.0399 8.58364L12.4011 9.48388L13.3482 9.56648C13.3655 9.56976 13.3815 9.57779 13.3948 9.58971C13.408 9.60164 13.4179 9.61703 13.4234 9.63428C13.4288 9.65152 13.4297 9.66998 13.426 9.68772C13.4222 9.70545 13.4139 9.72181 13.4019 9.73507L13.415 9.74687ZM15.6704 9.69461V9.75193C15.6404 10.1255 15.5185 10.4848 15.3162 10.7956C15.1139 11.1064 14.8381 11.3583 14.515 11.5271C14.5248 11.4647 14.5313 11.4024 14.5362 11.3383L14.7591 9.01185H15.0748C15.1578 9.0127 15.2398 9.03129 15.3156 9.06645C15.3914 9.10161 15.4593 9.15259 15.5152 9.2162C15.5711 9.2798 15.6137 9.35466 15.6405 9.43611C15.6672 9.51756 15.6774 9.60384 15.6704 9.68955V9.69461Z" fill="#777777"/>
<path d="M14.2773 16.3638H9.65084C9.54569 16.3638 9.46045 16.4521 9.46045 16.561V17.2573C9.46045 17.3662 9.54569 17.4545 9.65084 17.4545H14.2773C14.3824 17.4545 14.4677 17.3662 14.4677 17.2573V16.561C14.4677 16.4521 14.3824 16.3638 14.2773 16.3638Z" fill="#777777"/>
</g>
<defs>
<clipPath id="clip0_0_227">
<rect width="8.72727" height="10.9091" fill="white" transform="translate(7.63623 6.54546)"/>
</clipPath>
</defs>
</svg>
