<svg width="44" height="44" viewBox="0 0 44 44" fill="none" xmlns="http://www.w3.org/2000/svg">
<path opacity="0.4" d="M31.25 19.15C30.76 18.37 30.2 17.67 29.62 17.04L25.85 20.81C25.97 21.18 26.04 21.58 26.04 22C26.04 24.24 24.23 26.04 22 26.04C21.58 26.04 21.18 25.97 20.81 25.85L17.35 29.31C18.81 30.13 20.39 30.56 22 30.56C23.78 30.56 25.51 30.04 27.09 29.07C28.67 28.09 30.09 26.66 31.25 24.84C32.25 23.28 32.25 20.72 31.25 19.15Z" fill="#777777"/>
<path d="M24.02 19.98L19.98 24.02C19.47 23.5 19.14 22.78 19.14 22C19.14 20.43 20.42 19.14 22 19.14C22.78 19.14 23.5 19.47 24.02 19.98Z" fill="#777777"/>
<path opacity="0.4" d="M28.25 15.7501L24.86 19.1401C24.13 18.4001 23.12 17.9601 22 17.9601C19.76 17.9601 17.96 19.7701 17.96 22.0001C17.96 23.1201 18.41 24.1301 19.14 24.8601L15.76 28.2501H15.75C14.64 27.3501 13.62 26.2001 12.75 24.8401C11.75 23.2701 11.75 20.7201 12.75 19.1501C13.91 17.3301 15.33 15.9001 16.91 14.9201C18.49 13.9601 20.22 13.4301 22 13.4301C24.23 13.4301 26.39 14.2501 28.25 15.7501Z" fill="#777777"/>
<path d="M24.86 22C24.86 23.57 23.58 24.86 22 24.86C21.94 24.86 21.89 24.86 21.83 24.84L24.84 21.83C24.86 21.89 24.86 21.94 24.86 22Z" fill="#777777"/>
<path d="M31.77 12.23C31.47 11.93 30.98 11.93 30.68 12.23L12.23 30.69C11.93 30.99 11.93 31.48 12.23 31.78C12.38 31.92 12.57 32 12.77 32C12.97 32 13.16 31.92 13.31 31.77L31.77 13.31C32.08 13.01 32.08 12.53 31.77 12.23Z" fill="#777777"/>
</svg>
