<svg width="23" height="23" viewBox="0 0 23 23" fill="none" xmlns="http://www.w3.org/2000/svg">
<g filter="url(#filter0_d_0_97)">
<path fill-rule="evenodd" clip-rule="evenodd" d="M8.07646 2.875C8.47896 2.875 8.80576 3.19545 8.80576 3.59108C8.80576 3.98578 8.47992 4.30623 8.07646 4.30623L6.51534 4.30717C5.21967 4.30905 4.16551 5.3437 4.16551 6.61517V8.39692C4.16551 8.79162 3.83776 9.11301 3.43526 9.11301C3.03276 9.11301 2.70596 8.79162 2.70596 8.39692V6.61517C2.70596 4.55526 4.41467 2.87782 6.51438 2.87594L8.07551 2.875H8.07646ZM14.9505 2.87528H16.4771C18.5826 2.87528 20.2942 4.55366 20.2942 6.61827V8.39721C20.2942 8.7919 19.9683 9.11329 19.5649 9.11329C19.1624 9.11329 18.8356 8.7919 18.8356 8.39721V6.61827C18.8356 5.34304 17.7776 4.30557 16.4771 4.30557H14.9505C14.548 4.30557 14.2212 3.98606 14.2212 3.59137C14.2212 3.19573 14.548 2.87528 14.9505 2.87528ZM14.1473 6.46171H8.85348C7.64215 6.47393 6.66848 7.44468 6.67902 8.63346V9.82693C6.6819 9.96601 6.79594 10.0797 6.93777 10.0844H16.0611C16.2039 10.0807 16.3179 9.96695 16.3227 9.82693V8.63346C16.3237 8.05928 16.0975 7.50765 15.6893 7.09698C15.2839 6.69007 14.7271 6.46171 14.1473 6.46171ZM1.6885 11.5395H21.3123C21.7148 11.5395 22.0416 11.86 22.0416 12.2556C22.0416 12.6503 21.7148 12.9698 21.3123 12.9698H20.2945V16.3811C20.2945 18.4466 18.582 20.125 16.4775 20.125H14.9509C14.5474 20.125 14.2206 19.8045 14.2206 19.4089C14.2206 19.0142 14.5474 18.6938 14.9509 18.6938H16.4775C17.778 18.6938 18.836 17.6572 18.836 16.3811V12.9698H16.3223V13.9199C16.3318 15.1087 15.3591 16.0803 14.1468 16.0916H8.853C7.64167 16.0803 6.66896 15.1087 6.67854 13.9199V12.9698H4.16484V16.3848C4.16484 17.6563 5.21996 18.691 6.51659 18.6928L8.07675 18.6938C8.47925 18.6938 8.80604 19.0142 8.80604 19.4089C8.80509 19.8045 8.47925 20.125 8.07579 20.125L6.51467 20.1241C4.41496 20.1222 2.70529 18.4447 2.70529 16.3848V12.9698H1.6885C1.286 12.9698 0.958252 12.6503 0.958252 12.2556C0.958252 11.86 1.286 11.5395 1.6885 11.5395Z" fill="#161C22"/>
</g>
<defs>
<filter id="filter0_d_0_97" x="-16" y="-11" width="55" height="55" filterUnits="userSpaceOnUse" color-interpolation-filters="sRGB">
<feFlood flood-opacity="0" result="BackgroundImageFix"/>
<feColorMatrix in="SourceAlpha" type="matrix" values="0 0 0 0 0 0 0 0 0 0 0 0 0 0 0 0 0 0 127 0" result="hardAlpha"/>
<feOffset dy="5"/>
<feGaussianBlur stdDeviation="8"/>
<feComposite in2="hardAlpha" operator="out"/>
<feColorMatrix type="matrix" values="0 0 0 0 0.988235 0 0 0 0 0.741176 0 0 0 0 0.407843 0 0 0 0.25 0"/>
<feBlend mode="normal" in2="BackgroundImageFix" result="effect1_dropShadow_0_97"/>
<feBlend mode="normal" in="SourceGraphic" in2="effect1_dropShadow_0_97" result="shape"/>
</filter>
</defs>
</svg>
