<svg width="27" height="27" viewBox="0 0 27 27" fill="none" xmlns="http://www.w3.org/2000/svg">
<g opacity="0.5">
<path d="M13.5 2.25001C7.29677 2.25001 2.25001 7.29677 2.25001 13.5C2.25001 19.7033 7.29677 24.75 13.5 24.75C19.7033 24.75 24.75 19.7033 24.75 13.5C24.75 7.29677 19.7033 2.25001 13.5 2.25001ZM13.5 22.5C8.53764 22.5 4.50001 18.4624 4.50001 13.5C4.50001 8.53764 8.53764 4.50001 13.5 4.50001C18.4624 4.50001 22.5 8.53764 22.5 13.5C22.5 18.4624 18.4624 22.5 13.5 22.5Z" fill="#1B1A57"/>
<path d="M16.6826 16.6815C16.2714 17.0914 15.7857 17.419 15.2516 17.6468C14.2901 18.0527 13.2174 18.112 12.2169 17.8144C11.2165 17.5169 10.3506 16.881 9.76722 16.0155L7.90197 17.2744C8.38846 17.9923 9.00739 18.6109 9.72559 19.0969C10.4565 19.5911 11.2776 19.9364 12.1421 20.1128C13.0385 20.2956 13.9626 20.2956 14.859 20.1128C15.7234 19.9361 16.5445 19.5909 17.2755 19.0969C17.6276 18.8584 17.964 18.5817 18.2722 18.2745C18.5782 17.9697 18.8572 17.6322 19.098 17.2744L17.2327 16.0155C17.071 16.2546 16.8868 16.4776 16.6826 16.6815Z" fill="#1B1A57"/>
<path d="M17.4296 13.4842C18.3573 13.4842 19.1093 12.7322 19.1093 11.8046C19.1093 10.877 18.3573 10.125 17.4296 10.125C16.502 10.125 15.75 10.877 15.75 11.8046C15.75 12.7322 16.502 13.4842 17.4296 13.4842Z" fill="#1B1A57"/>
<path d="M9.56254 13.5C10.4945 13.5 11.25 12.7445 11.25 11.8125C11.25 10.8805 10.4945 10.125 9.56254 10.125C8.63056 10.125 7.87504 10.8805 7.87504 11.8125C7.87504 12.7445 8.63056 13.5 9.56254 13.5Z" fill="#1B1A57"/>
</g>
</svg>
