<svg width="44" height="44" viewBox="0 0 44 44" fill="none" xmlns="http://www.w3.org/2000/svg">
<g filter="url(#filter0_d_1_5151)">
<path d="M24.85 13.95V17.75H23.35V13.95C23.35 13.68 23.11 13.55 22.95 13.55C22.9 13.55 22.85 13.56 22.8 13.58L14.87 16.57C14.34 16.77 14 17.27 14 17.84V18.51C13.09 19.19 12.5 20.28 12.5 21.51V17.84C12.5 16.65 13.23 15.59 14.34 15.17L22.28 12.17C22.5 12.09 22.73 12.05 22.95 12.05C23.95 12.05 24.85 12.86 24.85 13.95Z" fill="#FBA442"/>
<path d="M31.5 24.5V25.5C31.5 25.77 31.29 25.99 31.01 26H29.55C29.02 26 28.54 25.61 28.5 25.09C28.47 24.78 28.59 24.49 28.79 24.29C28.97 24.1 29.22 24 29.49 24H31C31.29 24.01 31.5 24.23 31.5 24.5Z" fill="#FBA442"/>
<path d="M29.48 22.95H30.5C31.05 22.95 31.5 22.5 31.5 21.95V21.51C31.5 19.44 29.81 17.75 27.74 17.75H16.26C15.41 17.75 14.63 18.03 14 18.51C13.09 19.19 12.5 20.28 12.5 21.51V28.24C12.5 30.31 14.19 32 16.26 32H27.74C29.81 32 31.5 30.31 31.5 28.24V28.05C31.5 27.5 31.05 27.05 30.5 27.05H29.63C28.67 27.05 27.75 26.46 27.5 25.53C27.29 24.77 27.54 24.04 28.04 23.55C28.41 23.17 28.92 22.95 29.48 22.95ZM24 22.75H17C16.59 22.75 16.25 22.41 16.25 22C16.25 21.59 16.59 21.25 17 21.25H24C24.41 21.25 24.75 21.59 24.75 22C24.75 22.41 24.41 22.75 24 22.75Z" fill="#FBA442"/>
</g>
<defs>
<filter id="filter0_d_1_5151" x="-3.5" y="1.05" width="51" height="51.95" filterUnits="userSpaceOnUse" color-interpolation-filters="sRGB">
<feFlood flood-opacity="0" result="BackgroundImageFix"/>
<feColorMatrix in="SourceAlpha" type="matrix" values="0 0 0 0 0 0 0 0 0 0 0 0 0 0 0 0 0 0 127 0" result="hardAlpha"/>
<feOffset dy="5"/>
<feGaussianBlur stdDeviation="8"/>
<feComposite in2="hardAlpha" operator="out"/>
<feColorMatrix type="matrix" values="0 0 0 0 0.988235 0 0 0 0 0.741176 0 0 0 0 0.407843 0 0 0 0.25 0"/>
<feBlend mode="normal" in2="BackgroundImageFix" result="effect1_dropShadow_1_5151"/>
<feBlend mode="normal" in="SourceGraphic" in2="effect1_dropShadow_1_5151" result="shape"/>
</filter>
</defs>
</svg>
