<svg width="23" height="23" viewBox="0 0 23 23" fill="none" xmlns="http://www.w3.org/2000/svg">
<path fill-rule="evenodd" clip-rule="evenodd" d="M8.07656 2.875C8.47906 2.875 8.80585 3.19545 8.80585 3.59108C8.80585 3.98578 8.48001 4.30623 8.07656 4.30623L6.51543 4.30717C5.21976 4.30905 4.1656 5.3437 4.1656 6.61517V8.39692C4.1656 8.79162 3.83785 9.11301 3.43535 9.11301C3.03285 9.11301 2.70606 8.79162 2.70606 8.39692V6.61517C2.70606 4.55526 4.41476 2.87782 6.51447 2.87594L8.0756 2.875H8.07656ZM14.9506 2.87528H16.4772C18.5827 2.87528 20.2943 4.55366 20.2943 6.61827V8.39721C20.2943 8.7919 19.9684 9.11329 19.565 9.11329C19.1625 9.11329 18.8357 8.7919 18.8357 8.39721V6.61827C18.8357 5.34304 17.7777 4.30557 16.4772 4.30557H14.9506C14.5481 4.30557 14.2213 3.98606 14.2213 3.59137C14.2213 3.19573 14.5481 2.87528 14.9506 2.87528ZM14.1474 6.46171H8.85357C7.64224 6.47393 6.66857 7.44468 6.67911 8.63346V9.82693C6.68199 9.96601 6.79603 10.0797 6.93786 10.0844H16.0612C16.204 10.0807 16.318 9.96695 16.3228 9.82693V8.63346C16.3238 8.05928 16.0976 7.50765 15.6894 7.09698C15.284 6.69007 14.7272 6.46171 14.1474 6.46171ZM1.68859 11.5395H21.3124C21.7149 11.5395 22.0417 11.86 22.0417 12.2556C22.0417 12.6503 21.7149 12.9698 21.3124 12.9698H20.2946V16.3811C20.2946 18.4466 18.5821 20.125 16.4776 20.125H14.951C14.5475 20.125 14.2207 19.8045 14.2207 19.4089C14.2207 19.0142 14.5475 18.6938 14.951 18.6938H16.4776C17.7781 18.6938 18.8361 17.6572 18.8361 16.3811V12.9698H16.3223V13.9199C16.3319 15.1087 15.3592 16.0803 14.1469 16.0916H8.85309C7.64176 16.0803 6.66905 15.1087 6.67863 13.9199V12.9698H4.16493V16.3848C4.16493 17.6563 5.22005 18.691 6.51668 18.6928L8.07684 18.6938C8.47934 18.6938 8.80614 19.0142 8.80614 19.4089C8.80518 19.8045 8.47934 20.125 8.07588 20.125L6.51476 20.1241C4.41505 20.1222 2.70538 18.4447 2.70538 16.3848V12.9698H1.68859C1.28609 12.9698 0.958344 12.6503 0.958344 12.2556C0.958344 11.86 1.28609 11.5395 1.68859 11.5395Z" fill="#777777"/>
</svg>
