<svg width="24" height="24" viewBox="0 0 24 24" fill="none" xmlns="http://www.w3.org/2000/svg">
<path d="M12 16.0001C11.7663 16.0005 11.5399 15.9191 11.36 15.7701L5.35999 10.7701C4.93473 10.4166 4.87653 9.78531 5.22999 9.36005C5.58346 8.9348 6.21473 8.87659 6.63999 9.23005L12 13.7101L17.36 9.39005C17.5666 9.22228 17.8315 9.14379 18.0962 9.17194C18.3608 9.20009 18.6033 9.33257 18.77 9.54005C18.9551 9.74791 19.0452 10.0235 19.0187 10.3006C18.9921 10.5777 18.8513 10.8312 18.63 11.0001L12.63 15.8301C12.4449 15.9556 12.2231 16.0154 12 16.0001Z" fill="#777777"/>
</svg>
