<svg width="23" height="23" viewBox="0 0 23 23" fill="none" xmlns="http://www.w3.org/2000/svg">
<g filter="url(#filter0_d_0_31)">
<path fill-rule="evenodd" clip-rule="evenodd" d="M8.07659 2.875C8.47909 2.875 8.80588 3.19545 8.80588 3.59108C8.80588 3.98578 8.48004 4.30623 8.07659 4.30623L6.51546 4.30717C5.21979 4.30905 4.16563 5.3437 4.16563 6.61517V8.39692C4.16563 8.79162 3.83788 9.11301 3.43538 9.11301C3.03288 9.11301 2.70609 8.79162 2.70609 8.39692V6.61517C2.70609 4.55526 4.41479 2.87782 6.5145 2.87594L8.07563 2.875H8.07659ZM14.9506 2.87528H16.4772C18.5827 2.87528 20.2943 4.55366 20.2943 6.61827V8.39721C20.2943 8.7919 19.9684 9.11329 19.565 9.11329C19.1625 9.11329 18.8357 8.7919 18.8357 8.39721V6.61827C18.8357 5.34304 17.7777 4.30557 16.4772 4.30557H14.9506C14.5481 4.30557 14.2213 3.98606 14.2213 3.59137C14.2213 3.19573 14.5481 2.87528 14.9506 2.87528ZM14.1474 6.46171H8.8536C7.64227 6.47393 6.6686 7.44468 6.67914 8.63346V9.82693C6.68202 9.96601 6.79606 10.0797 6.93789 10.0844H16.0612C16.204 10.0807 16.3181 9.96695 16.3229 9.82693V8.63346C16.3238 8.05928 16.0976 7.50765 15.6894 7.09698C15.284 6.69007 14.7272 6.46171 14.1474 6.46171ZM1.68862 11.5395H21.3124C21.7149 11.5395 22.0417 11.86 22.0417 12.2556C22.0417 12.6503 21.7149 12.9698 21.3124 12.9698H20.2947V16.3811C20.2947 18.4466 18.5821 20.125 16.4776 20.125H14.951C14.5475 20.125 14.2207 19.8045 14.2207 19.4089C14.2207 19.0142 14.5475 18.6938 14.951 18.6938H16.4776C17.7781 18.6938 18.8361 17.6572 18.8361 16.3811V12.9698H16.3224V13.9199C16.332 15.1087 15.3592 16.0803 14.147 16.0916H8.85312C7.64179 16.0803 6.66908 15.1087 6.67867 13.9199V12.9698H4.16496V16.3848C4.16496 17.6563 5.22008 18.691 6.51671 18.6928L8.07687 18.6938C8.47937 18.6938 8.80617 19.0142 8.80617 19.4089C8.80521 19.8045 8.47937 20.125 8.07592 20.125L6.51479 20.1241C4.41508 20.1222 2.70542 18.4447 2.70542 16.3848V12.9698H1.68862C1.28612 12.9698 0.958374 12.6503 0.958374 12.2556C0.958374 11.86 1.28612 11.5395 1.68862 11.5395Z" fill="#A7AFB7"/>
</g>
<defs>
<filter id="filter0_d_0_31" x="-15.0416" y="-8.125" width="53.0834" height="49.25" filterUnits="userSpaceOnUse" color-interpolation-filters="sRGB">
<feFlood flood-opacity="0" result="BackgroundImageFix"/>
<feColorMatrix in="SourceAlpha" type="matrix" values="0 0 0 0 0 0 0 0 0 0 0 0 0 0 0 0 0 0 127 0" result="hardAlpha"/>
<feOffset dy="5"/>
<feGaussianBlur stdDeviation="8"/>
<feComposite in2="hardAlpha" operator="out"/>
<feColorMatrix type="matrix" values="0 0 0 0 0.988235 0 0 0 0 0.741176 0 0 0 0 0.407843 0 0 0 0.25 0"/>
<feBlend mode="normal" in2="BackgroundImageFix" result="effect1_dropShadow_0_31"/>
<feBlend mode="normal" in="SourceGraphic" in2="effect1_dropShadow_0_31" result="shape"/>
</filter>
</defs>
</svg>
