<svg width="24" height="24" viewBox="0 0 24 24" fill="none" xmlns="http://www.w3.org/2000/svg">
<path d="M20.487 17.14L16.422 13.444C16.2298 13.2694 15.9773 13.1762 15.7178 13.1842C15.4582 13.1923 15.212 13.3008 15.031 13.487L12.638 15.948C12.062 15.838 10.904 15.477 9.71198 14.288C8.51998 13.095 8.15898 11.934 8.05198 11.362L10.511 8.968C10.6974 8.78713 10.8061 8.54082 10.8141 8.28121C10.8222 8.02159 10.7289 7.76904 10.554 7.577L6.85898 3.513C6.68402 3.32036 6.44086 3.20351 6.18113 3.18726C5.9214 3.17102 5.66557 3.25666 5.46798 3.426L3.29798 5.287C3.12509 5.46052 3.0219 5.69145 3.00798 5.936C2.99298 6.186 2.70698 12.108 7.29898 16.702C11.305 20.707 16.323 21 17.705 21C17.907 21 18.031 20.994 18.064 20.992C18.3085 20.9783 18.5393 20.8747 18.712 20.701L20.572 18.53C20.742 18.333 20.8283 18.0774 20.8124 17.8177C20.7965 17.558 20.6797 17.3148 20.487 17.14Z" fill="#2F80ED"/>
</svg>
