<svg width="44" height="44" viewBox="0 0 44 44" fill="none" xmlns="http://www.w3.org/2000/svg">
<path d="M30.83 18.01L24.28 12.77C23 11.75 21 11.74 19.73 12.76L13.18 18.01C12.24 18.76 11.67 20.26 11.87 21.44L13.13 28.98C13.42 30.67 14.99 32 16.7 32H27.3C28.99 32 30.59 30.64 30.88 28.97L32.14 21.43C32.32 20.26 31.75 18.76 30.83 18.01ZM22.75 28C22.75 28.41 22.41 28.75 22 28.75C21.59 28.75 21.25 28.41 21.25 28V25C21.25 24.59 21.59 24.25 22 24.25C22.41 24.25 22.75 24.59 22.75 25V28Z" fill="#777777"/>
</svg>
