<svg width="24" height="24" viewBox="0 0 24 24" fill="none" xmlns="http://www.w3.org/2000/svg">
<g clip-path="url(#clip0_0_237)">
<path d="M11.559 7.64579V6.90101H11.3264C11.2752 6.90101 11.2262 6.88026 11.19 6.84334C11.1539 6.80641 11.1336 6.75633 11.1336 6.70411V6.37666C11.1333 6.35063 11.1381 6.32479 11.1476 6.30066C11.1572 6.27652 11.1713 6.25456 11.1893 6.23605C11.2072 6.21754 11.2286 6.20285 11.2521 6.19282C11.2756 6.18279 11.3009 6.17763 11.3264 6.17763H13.2272C13.2527 6.17763 13.278 6.18279 13.3015 6.19282C13.325 6.20285 13.3464 6.21754 13.3643 6.23605C13.3823 6.25456 13.3964 6.27652 13.406 6.30066C13.4155 6.32479 13.4203 6.35063 13.42 6.37666V6.70411C13.42 6.75633 13.3997 6.80641 13.3636 6.84334C13.3274 6.88026 13.2784 6.90101 13.2272 6.90101H12.9946V7.64579H11.559Z" fill="#777777"/>
<path d="M12.9945 7.82343C12.9716 7.82343 12.949 7.81884 12.9279 7.80991C12.9068 7.80099 12.8876 7.7879 12.8715 7.7714C12.8553 7.75491 12.8425 7.73532 12.8338 7.71377C12.825 7.69222 12.8205 7.66912 12.8205 7.64579V6.90101C12.8211 6.85427 12.8396 6.80964 12.8722 6.77679C12.9048 6.74394 12.9487 6.72551 12.9945 6.72552H13.2271C13.2325 6.72504 13.2376 6.72263 13.2414 6.71871C13.2452 6.7148 13.2476 6.70963 13.2481 6.70412V6.37667C13.2481 6.37078 13.246 6.3651 13.2421 6.36074C13.2382 6.35638 13.2329 6.35366 13.2271 6.35313H11.3262C11.3205 6.35366 11.3151 6.35638 11.3113 6.36074C11.3074 6.3651 11.3053 6.37078 11.3053 6.37667V6.70412C11.3058 6.70963 11.3081 6.7148 11.3119 6.71871C11.3158 6.72263 11.3208 6.72504 11.3262 6.72552H11.5589C11.6046 6.72551 11.6486 6.74394 11.6811 6.77679C11.7137 6.80964 11.7323 6.85427 11.7328 6.90101V7.64579C11.7281 7.68927 11.7079 7.72946 11.676 7.75864C11.6441 7.78783 11.6027 7.80396 11.5599 7.80396C11.5171 7.80396 11.4758 7.78783 11.4439 7.75864C11.4119 7.72946 11.3917 7.68927 11.387 7.64579V7.07865H11.3262C11.2291 7.07809 11.1362 7.03845 11.0675 6.96833C10.9988 6.89822 10.96 6.80327 10.9595 6.70412V6.37667C10.9595 6.27714 10.998 6.18166 11.0668 6.11108C11.1355 6.0405 11.2288 6.00057 11.3262 6H13.2271C13.3246 6.00057 13.4179 6.0405 13.4866 6.11108C13.5553 6.18166 13.5939 6.27714 13.5939 6.37667V6.70412C13.5933 6.80327 13.5545 6.89822 13.4858 6.96833C13.4172 7.03845 13.3242 7.07809 13.2271 7.07865H13.1747V7.64579C13.1747 7.66967 13.17 7.69331 13.1609 7.71529C13.1518 7.73727 13.1384 7.75715 13.1216 7.77373C13.1047 7.79031 13.0848 7.80326 13.063 7.8118C13.0411 7.82034 13.0178 7.8243 12.9945 7.82343Z" fill="#777777"/>
<path d="M9.86567 12.7116C9.86567 12.7786 9.83961 12.8428 9.79324 12.8902C9.74686 12.9375 9.68396 12.9641 9.61837 12.9641H9.19922C9.13363 12.9641 9.07072 12.9375 9.02434 12.8902C8.97797 12.8428 8.9519 12.7786 8.9519 12.7116C8.9519 12.6446 8.97797 12.5804 9.02434 12.533C9.07072 12.4857 9.13363 12.4591 9.19922 12.4591H9.61837C9.68396 12.4591 9.74686 12.4857 9.79324 12.533C9.83961 12.5804 9.86567 12.6446 9.86567 12.7116Z" fill="#777777"/>
<path d="M10.5675 14.443C10.6133 14.4903 10.639 14.5541 10.639 14.6206C10.639 14.6872 10.6133 14.751 10.5675 14.7983L10.2678 15.1065C10.2208 15.1535 10.1576 15.1796 10.0918 15.1792C10.0595 15.1795 10.0275 15.1732 9.99765 15.1607C9.96778 15.1482 9.94066 15.1298 9.91784 15.1065C9.8716 15.0584 9.84531 14.994 9.84448 14.9267C9.84497 14.8599 9.87135 14.796 9.91784 14.7491L10.2175 14.443C10.2405 14.4195 10.2678 14.4009 10.2978 14.3882C10.3278 14.3755 10.36 14.3689 10.3925 14.3689C10.425 14.3689 10.4572 14.3755 10.4872 14.3882C10.5173 14.4009 10.5446 14.4195 10.5675 14.443Z" fill="#777777"/>
<path d="M10.5697 10.6164C10.5951 10.6392 10.6157 10.6671 10.6301 10.6984C10.6445 10.7297 10.6525 10.7637 10.6536 10.7983C10.6546 10.8329 10.6487 10.8673 10.6361 10.8994C10.6236 10.9316 10.6047 10.9607 10.5807 10.9851C10.5567 11.0095 10.528 11.0286 10.4965 11.0412C10.4649 11.0538 10.4312 11.0597 10.3973 11.0584C10.3635 11.0571 10.3302 11.0488 10.2997 11.0339C10.2691 11.0189 10.2419 10.9978 10.2197 10.9716L9.91997 10.6656C9.87884 10.6172 9.85725 10.5547 9.85954 10.4907C9.86184 10.4267 9.88786 10.366 9.93234 10.3209C9.97682 10.2757 10.0364 10.2495 10.0991 10.2476C10.1618 10.2456 10.2229 10.268 10.27 10.3103L10.5697 10.6164Z" fill="#777777"/>
<path d="M12.02 9.99785V9.56982C12.02 9.50284 12.0461 9.4386 12.0925 9.39124C12.1388 9.34388 12.2017 9.31728 12.2673 9.31728C12.3329 9.31728 12.3958 9.34388 12.4422 9.39124C12.4886 9.4386 12.5146 9.50284 12.5146 9.56982V9.99785C12.5146 10.0648 12.4886 10.1291 12.4422 10.1764C12.3958 10.2238 12.3329 10.2504 12.2673 10.2504C12.2017 10.2504 12.1388 10.2238 12.0925 10.1764C12.0461 10.1291 12.02 10.0648 12.02 9.99785Z" fill="#777777"/>
<path d="M12.5146 15.4189V15.847C12.5146 15.914 12.4886 15.9782 12.4422 16.0255C12.3958 16.0729 12.3329 16.0995 12.2673 16.0995C12.2017 16.0995 12.1388 16.0729 12.0925 16.0255C12.0461 15.9782 12.02 15.914 12.02 15.847V15.4189C12.02 15.352 12.0461 15.2877 12.0925 15.2404C12.1388 15.193 12.2017 15.1664 12.2673 15.1664C12.3329 15.1664 12.3958 15.193 12.4422 15.2404C12.4886 15.2877 12.5146 15.352 12.5146 15.4189Z" fill="#777777"/>
<path d="M12.2316 13.2852C12.0645 13.2858 11.9027 13.2251 11.7756 13.1142C11.6486 13.0032 11.5647 12.8494 11.5393 12.6807C11.514 12.512 11.5487 12.3396 11.6373 12.1948C11.7259 12.05 11.8624 11.9426 12.0221 11.8919C12.284 11.8063 13.5122 11.7956 14.0277 11.7956H14.0571C14.0936 11.796 14.129 11.8082 14.1584 11.8304C14.1878 11.8525 14.2096 11.8836 14.2207 11.9191C14.2318 11.9546 14.2317 11.9928 14.2204 12.0283C14.2091 12.0637 14.1871 12.0946 14.1577 12.1166C13.9229 12.29 12.7388 13.1568 12.4517 13.2509C12.3806 13.2744 12.3063 13.2859 12.2316 13.2852Z" fill="#777777"/>
<path d="M13.9712 10.9652C13.948 10.9421 13.9296 10.9145 13.917 10.884C13.9044 10.8535 13.8979 10.8207 13.8979 10.7876C13.8979 10.7545 13.9044 10.7217 13.917 10.6912C13.9296 10.6607 13.948 10.6331 13.9712 10.61L14.2709 10.3018C14.3057 10.2674 14.3496 10.2443 14.3972 10.2351C14.4448 10.226 14.4939 10.2314 14.5385 10.2505C14.5832 10.2697 14.6213 10.3018 14.6482 10.3428C14.6752 10.3839 14.6897 10.4321 14.6901 10.4815C14.6903 10.5145 14.6842 10.5472 14.6719 10.5777C14.6597 10.6082 14.6417 10.6359 14.6188 10.6592L14.3191 10.9652C14.2963 10.989 14.2691 11.0078 14.239 11.0207C14.209 11.0336 14.1767 11.0402 14.1441 11.0402C14.1115 11.0402 14.0793 11.0336 14.0492 11.0207C14.0192 11.0078 13.9919 10.989 13.9691 10.9652H13.9712Z" fill="#777777"/>
<path d="M14.6231 14.7555C14.6695 14.8025 14.6959 14.8663 14.6964 14.9331C14.696 15.0006 14.6697 15.0651 14.6231 15.1129C14.6002 15.1362 14.5731 15.1546 14.5432 15.1671C14.5134 15.1796 14.4814 15.1859 14.4491 15.1857C14.3833 15.1861 14.3201 15.1599 14.2731 15.1129L13.9734 14.8068C13.9273 14.7589 13.9017 14.6942 13.9021 14.6271C13.9018 14.5941 13.908 14.5614 13.9202 14.5309C13.9325 14.5004 13.9505 14.4727 13.9734 14.4494C13.9963 14.4259 14.0236 14.4073 14.0536 14.3946C14.0837 14.3819 14.1159 14.3753 14.1484 14.3753C14.1809 14.3753 14.2131 14.3819 14.2431 14.3946C14.2731 14.4073 14.3004 14.4259 14.3234 14.4494L14.6231 14.7555Z" fill="#777777"/>
<path d="M15.5996 12.7116C15.5996 12.7786 15.5735 12.8428 15.5271 12.8902C15.4807 12.9375 15.4178 12.9641 15.3522 12.9641H14.9331C14.8675 12.9641 14.8046 12.9375 14.7582 12.8902C14.7118 12.8428 14.6858 12.7786 14.6858 12.7116C14.6858 12.6446 14.7118 12.5804 14.7582 12.533C14.8046 12.4857 14.8675 12.4591 14.9331 12.4591H15.3522C15.4178 12.4591 15.4807 12.4857 15.5271 12.533C15.5735 12.5804 15.5996 12.6446 15.5996 12.7116Z" fill="#777777"/>
<path d="M13.1749 7.68218L13.0052 7.65436L12.8312 7.63296C12.6495 7.6132 12.4669 7.6032 12.2842 7.603C12.1035 7.60219 11.923 7.61219 11.7435 7.63296C11.6848 7.63296 11.6282 7.6458 11.5695 7.65436L11.3998 7.68218C10.1688 7.9086 9.06545 8.59731 8.30677 9.61277C7.5481 10.6282 7.18909 11.8969 7.30039 13.1691C7.4117 14.4413 7.98525 15.6249 8.90818 16.4869C9.83112 17.3489 11.0366 17.827 12.2874 17.827C13.5381 17.827 14.7436 17.3489 15.6665 16.4869C16.5894 15.6249 17.163 14.4413 17.2743 13.1691C17.3856 11.8969 17.0266 10.6282 16.2679 9.61277C15.5093 8.59731 14.4059 7.9086 13.1749 7.68218ZM12.2842 16.3884C11.5728 16.3884 10.8774 16.173 10.286 15.7694C9.6945 15.3657 9.23354 14.792 8.9614 14.1208C8.68926 13.4496 8.61817 12.7111 8.7571 11.9986C8.89604 11.2862 9.23876 10.6318 9.74193 10.1182C10.2451 9.60472 10.8861 9.25511 11.5839 9.11364C12.2816 8.97218 13.0048 9.04521 13.6619 9.32351C14.319 9.6018 14.8806 10.0729 15.2755 10.6771C15.6704 11.2813 15.881 11.9916 15.8806 12.718C15.8772 13.6919 15.4955 14.6246 14.8192 15.3112C14.1429 15.9978 13.2274 16.3822 12.2737 16.3799L12.2842 16.3884Z" fill="#777777"/>
<path d="M13.1748 7.49598L13.0008 7.46816L12.8269 7.44675C12.6452 7.427 12.4626 7.417 12.2799 7.41679C12.0976 7.41679 11.9173 7.4275 11.7392 7.44462L11.5652 7.46816L11.3934 7.49384C10.1149 7.7215 8.96655 8.43046 8.17506 9.48071C7.38358 10.531 7.00655 11.8461 7.11844 13.1664C7.23032 14.4867 7.82299 15.7162 8.77938 16.612C9.73577 17.5078 10.9863 18.0047 12.2841 18.0047C13.5818 18.0047 14.8324 17.5078 15.7888 16.612C16.7452 15.7162 17.3379 14.4867 17.4498 13.1664C17.5616 11.8461 17.1846 10.531 16.3931 9.48071C15.6016 8.43046 14.4533 7.7215 13.1748 7.49384V7.49598ZM12.2799 17.6469C11.323 17.6473 10.3876 17.3579 9.59179 16.8153C8.79602 16.2727 8.17572 15.5013 7.80935 14.5986C7.44299 13.6959 7.34702 12.7026 7.53359 11.7442C7.72016 10.7858 8.18088 9.90547 8.85749 9.21454C9.53409 8.5236 10.3962 8.05311 11.3347 7.86259C12.2732 7.67206 13.2459 7.77007 14.1298 8.14419C15.0138 8.51832 15.7692 9.15176 16.3006 9.96439C16.8319 10.777 17.1153 11.7323 17.1149 12.7095C17.1132 14.0195 16.6024 15.2754 15.6947 16.2011C14.7869 17.1269 13.5565 17.6469 12.2736 17.6469H12.2799Z" fill="#777777"/>
<path d="M12.2737 8.68378C11.494 8.68378 10.7318 8.91988 10.0836 9.36223C9.43527 9.80458 8.93 10.4333 8.63163 11.1689C8.33326 11.9045 8.25518 12.7139 8.40729 13.4948C8.5594 14.2757 8.93485 14.993 9.48618 15.556C10.0375 16.1191 10.7399 16.5025 11.5046 16.6578C12.2693 16.8131 13.062 16.7334 13.7823 16.4287C14.5026 16.124 15.1183 15.608 15.5515 14.946C15.9847 14.284 16.2159 13.5057 16.2159 12.7095C16.2148 11.6421 15.7991 10.6188 15.06 9.86412C14.321 9.10941 13.3189 8.68491 12.2737 8.68378ZM12.2737 16.3884C11.5623 16.3884 10.8669 16.173 10.2755 15.7693C9.68401 15.3657 9.22305 14.792 8.95091 14.1208C8.67877 13.4496 8.60768 12.7111 8.74661 11.9986C8.88555 11.2862 9.22827 10.6318 9.73144 10.1182C10.2346 9.60471 10.8756 9.2551 11.5734 9.11364C12.2711 8.97217 12.9943 9.0452 13.6514 9.3235C14.3086 9.60179 14.8701 10.0728 15.265 10.6771C15.6599 11.2813 15.8705 11.9916 15.8701 12.718C15.8667 13.69 15.4864 14.6211 14.8124 15.3074C14.1384 15.9937 13.2255 16.3793 12.2737 16.3799V16.3884Z" fill="#777777"/>
<path d="M12.0704 12.061C11.9376 12.1047 11.8272 12.2005 11.7635 12.3273C11.6999 12.4542 11.6881 12.6016 11.7309 12.7373C11.7737 12.8729 11.8675 12.9857 11.9917 13.0507C12.1159 13.1157 12.2603 13.1277 12.3932 13.084C12.6698 12.992 14.0509 11.9732 14.0509 11.9732C14.0509 11.9732 12.3471 11.9625 12.0704 12.061Z" fill="#777777"/>
<path d="M14.2228 11.9197C14.212 11.8839 14.1904 11.8526 14.161 11.8303C14.1316 11.8079 14.0959 11.7958 14.0593 11.7956H14.03C13.5144 11.7956 12.2863 11.7956 12.0243 11.8919C11.8616 11.9597 11.7298 12.0874 11.6551 12.2498C11.5803 12.4122 11.5682 12.5974 11.621 12.7686C11.6737 12.9397 11.7876 13.0843 11.94 13.1737C12.0924 13.2631 12.2721 13.2906 12.4435 13.2509C12.7306 13.1568 13.9105 12.29 14.1494 12.1166C14.1809 12.0963 14.205 12.0662 14.2182 12.0307C14.2315 11.9952 14.2331 11.9562 14.2228 11.9197ZM11.9027 12.6816C11.8884 12.6368 11.8828 12.5895 11.8864 12.5425C11.89 12.4955 11.9027 12.4497 11.9237 12.4077C11.9675 12.3218 12.0429 12.2572 12.1333 12.2279C12.5906 12.1693 13.0515 12.1443 13.5123 12.153C13.1426 12.4345 12.7539 12.6891 12.3491 12.9149C12.3138 12.926 12.2771 12.9318 12.2402 12.932C12.164 12.9342 12.0892 12.9109 12.0272 12.8657C11.9651 12.8205 11.9192 12.7559 11.8965 12.6816H11.9027Z" fill="#777777"/>
<path d="M12.5146 9.56554V9.99358C12.5146 10.0606 12.4886 10.1248 12.4422 10.1722C12.3958 10.2195 12.3329 10.2461 12.2673 10.2461C12.2017 10.2461 12.1388 10.2195 12.0925 10.1722C12.0461 10.1248 12.02 10.0606 12.02 9.99358V9.56554C12.02 9.49857 12.0461 9.43433 12.0925 9.38697C12.1388 9.33961 12.2017 9.313 12.2673 9.313C12.3329 9.313 12.3958 9.33961 12.4422 9.38697C12.4886 9.43433 12.5146 9.49857 12.5146 9.56554Z" fill="#777777"/>
<path d="M12.5146 15.4189V15.847C12.5146 15.914 12.4886 15.9782 12.4422 16.0255C12.3958 16.0729 12.3329 16.0995 12.2673 16.0995C12.2017 16.0995 12.1388 16.0729 12.0925 16.0255C12.0461 15.9782 12.02 15.914 12.02 15.847V15.4189C12.02 15.352 12.0461 15.2877 12.0925 15.2404C12.1388 15.193 12.2017 15.1664 12.2673 15.1664C12.3329 15.1664 12.3958 15.193 12.4422 15.2404C12.4886 15.2877 12.5146 15.352 12.5146 15.4189Z" fill="#777777"/>
<path d="M9.86567 12.7116C9.86567 12.7786 9.83961 12.8428 9.79324 12.8902C9.74686 12.9375 9.68396 12.9641 9.61837 12.9641H9.19922C9.13363 12.9641 9.07072 12.9375 9.02434 12.8902C8.97797 12.8428 8.9519 12.7786 8.9519 12.7116C8.9519 12.6446 8.97797 12.5804 9.02434 12.533C9.07072 12.4857 9.13363 12.4591 9.19922 12.4591H9.61837C9.68396 12.4591 9.74686 12.4857 9.79324 12.533C9.83961 12.5804 9.86567 12.6446 9.86567 12.7116Z" fill="#777777"/>
<path d="M15.5996 12.7116C15.5996 12.7786 15.5735 12.8428 15.5271 12.8902C15.4807 12.9375 15.4178 12.9641 15.3522 12.9641H14.9331C14.8675 12.9641 14.8046 12.9375 14.7582 12.8902C14.7118 12.8428 14.6858 12.7786 14.6858 12.7116C14.6858 12.6446 14.7118 12.5804 14.7582 12.533C14.8046 12.4857 14.8675 12.4591 14.9331 12.4591H15.3522C15.4178 12.4591 15.4807 12.4857 15.5271 12.533C15.5735 12.5804 15.5996 12.6446 15.5996 12.7116Z" fill="#777777"/>
<path d="M14.6922 10.4815C14.6924 10.5145 14.6863 10.5472 14.674 10.5777C14.6618 10.6082 14.6437 10.6359 14.6209 10.6592L14.3212 10.9652C14.299 10.9913 14.2718 11.0125 14.2412 11.0274C14.2106 11.0424 14.1774 11.0507 14.1436 11.052C14.1097 11.0533 14.076 11.0474 14.0444 11.0348C14.0129 11.0222 13.9842 11.0031 13.9602 10.9787C13.9361 10.9543 13.9173 10.9252 13.9047 10.893C13.8922 10.8609 13.8863 10.8265 13.8873 10.7919C13.8884 10.7573 13.8963 10.7233 13.9108 10.692C13.9252 10.6607 13.9458 10.6328 13.9712 10.61L14.2709 10.3018C14.3057 10.2674 14.3496 10.2443 14.3972 10.2351C14.4448 10.226 14.4939 10.2314 14.5385 10.2505C14.5832 10.2697 14.6213 10.3018 14.6482 10.3428C14.6752 10.3839 14.6897 10.4321 14.6901 10.4815H14.6922Z" fill="#777777"/>
<path d="M10.6388 14.6206C10.6391 14.6536 10.6329 14.6863 10.6207 14.7168C10.6084 14.7473 10.5904 14.775 10.5675 14.7983L10.2678 15.1065C10.2208 15.1535 10.1576 15.1796 10.0918 15.1792C10.0595 15.1795 10.0275 15.1732 9.99765 15.1607C9.96778 15.1482 9.94066 15.1298 9.91784 15.1065C9.8716 15.0584 9.84531 14.994 9.84448 14.9267C9.84497 14.8599 9.87135 14.796 9.91784 14.7491L10.2175 14.443C10.2405 14.4195 10.2678 14.4009 10.2978 14.3882C10.3278 14.3755 10.36 14.3689 10.3925 14.3689C10.425 14.3689 10.4572 14.3755 10.4872 14.3882C10.5173 14.4009 10.5446 14.4195 10.5675 14.443C10.5904 14.4663 10.6084 14.494 10.6207 14.5245C10.6329 14.555 10.6391 14.5877 10.6388 14.6206Z" fill="#777777"/>
<path d="M10.6432 10.794C10.6425 10.8432 10.6276 10.8912 10.6005 10.9319C10.5734 10.9727 10.5353 11.0044 10.4907 11.0233C10.4462 11.0422 10.3972 11.0474 10.3498 11.0382C10.3025 11.029 10.2587 11.0059 10.2241 10.9716L9.92436 10.6656C9.88324 10.6172 9.86164 10.5547 9.86394 10.4907C9.86623 10.4267 9.89224 10.366 9.93672 10.3209C9.9812 10.2757 10.0408 10.2495 10.1035 10.2476C10.1662 10.2456 10.2273 10.268 10.2744 10.3103L10.5741 10.6164C10.619 10.664 10.6438 10.7278 10.6432 10.794Z" fill="#777777"/>
<path d="M14.6964 14.9331C14.696 15.0006 14.6697 15.0651 14.6231 15.1129C14.6002 15.1362 14.5731 15.1546 14.5432 15.1671C14.5134 15.1796 14.4814 15.1859 14.4491 15.1857C14.3833 15.1861 14.3201 15.1599 14.2731 15.1129L13.9734 14.8068C13.9273 14.7589 13.9017 14.6942 13.9021 14.6271C13.9018 14.5941 13.908 14.5614 13.9202 14.5309C13.9325 14.5004 13.9505 14.4727 13.9734 14.4494C13.9963 14.4259 14.0236 14.4073 14.0536 14.3946C14.0837 14.3819 14.1159 14.3753 14.1484 14.3753C14.1809 14.3753 14.2131 14.3819 14.2431 14.3946C14.2731 14.4073 14.3004 14.4259 14.3234 14.4494L14.6231 14.7555C14.6695 14.8025 14.6959 14.8663 14.6964 14.9331Z" fill="#777777"/>
</g>
<defs>
<clipPath id="clip0_0_237">
<rect width="10.3636" height="12" fill="white" transform="translate(7.09082 6)"/>
</clipPath>
</defs>
</svg>
