<svg width="49" height="54" viewBox="0 0 49 54" fill="none" xmlns="http://www.w3.org/2000/svg">
<g filter="url(#filter0_d_0_209)">
<path fill-rule="evenodd" clip-rule="evenodd" d="M16 19.415C16.0466 14.7538 19.8386 10.9998 24.5 11C29.1614 10.9998 32.9534 14.7538 33 19.415C33 25.2375 25.5625 31.7188 25.1906 31.995C24.793 32.3351 24.207 32.3351 23.8094 31.995L23.8076 31.9935C23.4644 31.696 16 25.2273 16 19.415ZM20.7812 18.9688C20.7812 21.0226 22.4462 22.6875 24.5 22.6875C25.4863 22.6875 26.4322 22.2957 27.1296 21.5983C27.827 20.9009 28.2188 19.955 28.2188 18.9688C28.2188 16.9149 26.5538 15.25 24.5 15.25C22.4462 15.25 20.7812 16.9149 20.7812 18.9688Z" fill="#FBA442"/>
</g>
<defs>
<filter id="filter0_d_0_209" x="0" y="0" width="49" height="53.2501" filterUnits="userSpaceOnUse" color-interpolation-filters="sRGB">
<feFlood flood-opacity="0" result="BackgroundImageFix"/>
<feColorMatrix in="SourceAlpha" type="matrix" values="0 0 0 0 0 0 0 0 0 0 0 0 0 0 0 0 0 0 127 0" result="hardAlpha"/>
<feOffset dy="5"/>
<feGaussianBlur stdDeviation="8"/>
<feComposite in2="hardAlpha" operator="out"/>
<feColorMatrix type="matrix" values="0 0 0 0 0.988235 0 0 0 0 0.741176 0 0 0 0 0.407843 0 0 0 0.25 0"/>
<feBlend mode="normal" in2="BackgroundImageFix" result="effect1_dropShadow_0_209"/>
<feBlend mode="normal" in="SourceGraphic" in2="effect1_dropShadow_0_209" result="shape"/>
</filter>
</defs>
</svg>
