<svg width="40" height="43" viewBox="0 0 40 43" fill="none" xmlns="http://www.w3.org/2000/svg">
<g filter="url(#filter0_d_0_122)">
<path d="M19.8819 11.0233C18.4498 11.0233 17.2855 12.1876 17.2855 13.6197C17.2855 15.0245 18.3842 16.1614 19.8163 16.2106C19.8601 16.2051 19.9038 16.2051 19.9366 16.2106C19.9475 16.2106 19.953 16.2106 19.9639 16.2106C19.9694 16.2106 19.9694 16.2106 19.9748 16.2106C21.3742 16.1614 22.4729 15.0245 22.4783 13.6197C22.4783 12.1876 21.314 11.0233 19.8819 11.0233Z" fill="#777777"/>
<path fill-rule="evenodd" clip-rule="evenodd" d="M17.1107 17.6647C18.6467 16.648 21.1337 16.648 22.6588 17.6647C23.3475 18.1238 23.7247 18.747 23.7301 19.4193C23.7301 20.0971 23.3475 20.7202 22.6588 21.1848C21.8935 21.6986 20.8878 21.9556 19.882 21.9556C18.8762 21.9556 17.8705 21.6986 17.1052 21.1848C16.4165 20.7257 16.0339 20.1025 16.0339 19.4302C16.0339 18.7579 16.4165 18.1293 17.1107 17.6647ZM20.2918 19.0202H20.9751C21.1992 19.0202 21.385 19.2061 21.385 19.4302C21.385 19.6543 21.1992 19.8402 20.9751 19.8402H20.2918V20.5234C20.2918 20.7475 20.1059 20.9334 19.8818 20.9334C19.6577 20.9334 19.4719 20.7475 19.4719 20.5234V19.8402H18.7886C18.5645 19.8402 18.3787 19.6543 18.3787 19.4302C18.3787 19.2061 18.5645 19.0202 18.7886 19.0202H19.4719V18.337C19.4719 18.1129 19.6577 17.927 19.8818 17.927C20.1059 17.927 20.2918 18.1129 20.2918 18.337V19.0202Z" fill="#FBA442"/>
</g>
<defs>
<filter id="filter0_d_0_122" x="0" y="0" width="39.7639" height="43" filterUnits="userSpaceOnUse" color-interpolation-filters="sRGB">
<feFlood flood-opacity="0" result="BackgroundImageFix"/>
<feColorMatrix in="SourceAlpha" type="matrix" values="0 0 0 0 0 0 0 0 0 0 0 0 0 0 0 0 0 0 127 0" result="hardAlpha"/>
<feOffset dy="5"/>
<feGaussianBlur stdDeviation="8"/>
<feComposite in2="hardAlpha" operator="out"/>
<feColorMatrix type="matrix" values="0 0 0 0 0.368627 0 0 0 0 0.835294 0 0 0 0 0.658824 0 0 0 0.25 0"/>
<feBlend mode="normal" in2="BackgroundImageFix" result="effect1_dropShadow_0_122"/>
<feBlend mode="normal" in="SourceGraphic" in2="effect1_dropShadow_0_122" result="shape"/>
</filter>
</defs>
</svg>
